<mxfile host="www.draw.io" modified="2019-12-02T06:32:49.190Z" agent="Mozilla/5.0 (Windows NT 10.0; Win64; x64) AppleWebKit/537.36 (KHTML, like Gecko) Chrome/78.0.3904.108 Safari/537.36" etag="SxmGTAj27CGjs5BSvdTD" version="12.3.3" type="github" pages="1">
  <diagram id="ebyHIHOIsL0jrv1JN3ZG" name="Page-1">
    <mxGraphModel dx="1408" dy="748" grid="1" gridSize="10" guides="1" tooltips="1" connect="1" arrows="1" fold="1" page="1" pageScale="1" pageWidth="1600" pageHeight="1200" math="0" shadow="0">
      <root>
        <mxCell id="0"/>
        <mxCell id="1" parent="0"/>
        <mxCell id="Y5Kgps96UHaV6ycMvh6B-1" value=":UI" style="shape=umlLifeline;perimeter=lifelinePerimeter;whiteSpace=wrap;html=1;container=1;collapsible=0;recursiveResize=0;outlineConnect=0;" parent="1" vertex="1">
          <mxGeometry x="180" y="30" width="90" height="690" as="geometry"/>
        </mxCell>
        <mxCell id="Y5Kgps96UHaV6ycMvh6B-8" value="" style="html=1;points=[];perimeter=orthogonalPerimeter;" parent="Y5Kgps96UHaV6ycMvh6B-1" vertex="1">
          <mxGeometry x="40" y="90" width="10" height="360" as="geometry"/>
        </mxCell>
        <mxCell id="Y5Kgps96UHaV6ycMvh6B-6" value="User Client" style="shape=umlLifeline;participant=umlActor;perimeter=lifelinePerimeter;whiteSpace=wrap;html=1;container=1;collapsible=0;recursiveResize=0;verticalAlign=top;spacingTop=36;labelBackgroundColor=#ffffff;outlineConnect=0;" parent="1" vertex="1">
          <mxGeometry x="60" y="30" width="20" height="690" as="geometry"/>
        </mxCell>
        <mxCell id="Y5Kgps96UHaV6ycMvh6B-7" value="" style="html=1;points=[];perimeter=orthogonalPerimeter;" parent="Y5Kgps96UHaV6ycMvh6B-6" vertex="1">
          <mxGeometry x="5" y="80" width="10" height="390" as="geometry"/>
        </mxCell>
        <mxCell id="Y5Kgps96UHaV6ycMvh6B-10" value="input search text" style="html=1;verticalAlign=bottom;endArrow=block;exitX=1;exitY=0.017;exitDx=0;exitDy=0;exitPerimeter=0;entryX=0;entryY=0;entryDx=0;entryDy=0;entryPerimeter=0;" parent="1" source="Y5Kgps96UHaV6ycMvh6B-7" target="Y5Kgps96UHaV6ycMvh6B-8" edge="1">
          <mxGeometry width="80" relative="1" as="geometry">
            <mxPoint x="90" y="130" as="sourcePoint"/>
            <mxPoint x="210" y="120" as="targetPoint"/>
          </mxGeometry>
        </mxCell>
        <mxCell id="Y5Kgps96UHaV6ycMvh6B-11" value=":CyberMiner Controller" style="shape=umlLifeline;perimeter=lifelinePerimeter;whiteSpace=wrap;html=1;container=1;collapsible=0;recursiveResize=0;outlineConnect=0;" parent="1" vertex="1">
          <mxGeometry x="360" y="30" width="90" height="690" as="geometry"/>
        </mxCell>
        <mxCell id="Y5Kgps96UHaV6ycMvh6B-12" value="" style="html=1;points=[];perimeter=orthogonalPerimeter;" parent="Y5Kgps96UHaV6ycMvh6B-11" vertex="1">
          <mxGeometry x="40" y="90" width="10" height="340" as="geometry"/>
        </mxCell>
        <mxCell id="Y5Kgps96UHaV6ycMvh6B-17" value="onChange(searchVal)" style="html=1;verticalAlign=bottom;endArrow=block;entryX=0.2;entryY=0.026;entryDx=0;entryDy=0;entryPerimeter=0;" parent="1" source="Y5Kgps96UHaV6ycMvh6B-8" target="Y5Kgps96UHaV6ycMvh6B-12" edge="1">
          <mxGeometry width="80" relative="1" as="geometry">
            <mxPoint x="240" y="129.86" as="sourcePoint"/>
            <mxPoint x="360" y="130" as="targetPoint"/>
            <Array as="points">
              <mxPoint x="320" y="130"/>
            </Array>
          </mxGeometry>
        </mxCell>
        <mxCell id="c4jGAsvlEePRstkMnkjR-3" value=":AutoSuggest" style="shape=umlLifeline;perimeter=lifelinePerimeter;whiteSpace=wrap;html=1;container=1;collapsible=0;recursiveResize=0;outlineConnect=0;" vertex="1" parent="1">
          <mxGeometry x="570" y="30" width="90" height="690" as="geometry"/>
        </mxCell>
        <mxCell id="c4jGAsvlEePRstkMnkjR-4" value="" style="html=1;points=[];perimeter=orthogonalPerimeter;" vertex="1" parent="c4jGAsvlEePRstkMnkjR-3">
          <mxGeometry x="40" y="90" width="10" height="340" as="geometry"/>
        </mxCell>
        <mxCell id="c4jGAsvlEePRstkMnkjR-5" value="getSuggestions(searchVal)" style="endArrow=classic;html=1;entryX=0;entryY=0.091;entryDx=0;entryDy=0;entryPerimeter=0;" edge="1" parent="1" target="c4jGAsvlEePRstkMnkjR-4">
          <mxGeometry x="-0.0005" y="10" width="50" height="50" relative="1" as="geometry">
            <mxPoint x="410" y="150" as="sourcePoint"/>
            <mxPoint x="460" y="100" as="targetPoint"/>
            <mxPoint as="offset"/>
          </mxGeometry>
        </mxCell>
        <mxCell id="c4jGAsvlEePRstkMnkjR-6" value="create(searchVal)" style="endArrow=classic;html=1;" edge="1" parent="1">
          <mxGeometry y="10" width="50" height="50" relative="1" as="geometry">
            <mxPoint x="620" y="170" as="sourcePoint"/>
            <mxPoint x="820" y="170" as="targetPoint"/>
            <mxPoint as="offset"/>
          </mxGeometry>
        </mxCell>
        <mxCell id="c4jGAsvlEePRstkMnkjR-7" value=":Search" style="shape=umlLifeline;perimeter=lifelinePerimeter;whiteSpace=wrap;html=1;container=1;collapsible=0;recursiveResize=0;outlineConnect=0;" vertex="1" parent="1">
          <mxGeometry x="780" y="30" width="90" height="690" as="geometry"/>
        </mxCell>
        <mxCell id="c4jGAsvlEePRstkMnkjR-8" value="" style="html=1;points=[];perimeter=orthogonalPerimeter;" vertex="1" parent="c4jGAsvlEePRstkMnkjR-7">
          <mxGeometry x="40" y="90" width="10" height="340" as="geometry"/>
        </mxCell>
        <mxCell id="c4jGAsvlEePRstkMnkjR-9" value="constructor(searchVal)" style="endArrow=classic;html=1;entryX=1;entryY=0.256;entryDx=0;entryDy=0;entryPerimeter=0;" edge="1" parent="1" target="c4jGAsvlEePRstkMnkjR-8">
          <mxGeometry x="-0.3103" y="32" width="50" height="50" relative="1" as="geometry">
            <mxPoint x="830" y="180" as="sourcePoint"/>
            <mxPoint x="860" y="230" as="targetPoint"/>
            <mxPoint x="-2" y="-10" as="offset"/>
            <Array as="points">
              <mxPoint x="860" y="180"/>
              <mxPoint x="860" y="207"/>
            </Array>
          </mxGeometry>
        </mxCell>
        <mxCell id="c4jGAsvlEePRstkMnkjR-10" value="done" style="endArrow=none;dashed=1;html=1;exitX=1.2;exitY=0.297;exitDx=0;exitDy=0;exitPerimeter=0;startArrow=classic;startFill=1;" edge="1" parent="1" source="c4jGAsvlEePRstkMnkjR-4">
          <mxGeometry x="0.7985" y="10" width="50" height="50" relative="1" as="geometry">
            <mxPoint x="770" y="270" as="sourcePoint"/>
            <mxPoint x="820" y="220" as="targetPoint"/>
            <mxPoint as="offset"/>
          </mxGeometry>
        </mxCell>
        <mxCell id="c4jGAsvlEePRstkMnkjR-11" value="executeSearch(cachedIndex)" style="endArrow=classic;html=1;exitX=0.9;exitY=0.412;exitDx=0;exitDy=0;exitPerimeter=0;" edge="1" parent="1" source="c4jGAsvlEePRstkMnkjR-4">
          <mxGeometry y="10" width="50" height="50" relative="1" as="geometry">
            <mxPoint x="625" y="260" as="sourcePoint"/>
            <mxPoint x="820" y="260" as="targetPoint"/>
            <mxPoint as="offset"/>
          </mxGeometry>
        </mxCell>
        <mxCell id="c4jGAsvlEePRstkMnkjR-12" value="suggestion results" style="endArrow=none;dashed=1;html=1;exitX=1.2;exitY=0.297;exitDx=0;exitDy=0;exitPerimeter=0;startArrow=classic;startFill=1;" edge="1" parent="1">
          <mxGeometry x="0.5157" y="10" width="50" height="50" relative="1" as="geometry">
            <mxPoint x="620" y="310.98" as="sourcePoint"/>
            <mxPoint x="818" y="310" as="targetPoint"/>
            <mxPoint as="offset"/>
          </mxGeometry>
        </mxCell>
        <mxCell id="c4jGAsvlEePRstkMnkjR-13" value="suggestion results" style="endArrow=none;dashed=1;html=1;exitX=1.2;exitY=0.297;exitDx=0;exitDy=0;exitPerimeter=0;startArrow=classic;startFill=1;entryX=-0.1;entryY=0.65;entryDx=0;entryDy=0;entryPerimeter=0;" edge="1" parent="1" target="c4jGAsvlEePRstkMnkjR-4">
          <mxGeometry x="0.5157" y="10" width="50" height="50" relative="1" as="geometry">
            <mxPoint x="410" y="340.98" as="sourcePoint"/>
            <mxPoint x="570" y="340" as="targetPoint"/>
            <mxPoint as="offset"/>
          </mxGeometry>
        </mxCell>
        <mxCell id="c4jGAsvlEePRstkMnkjR-14" value="suggestion results" style="endArrow=none;dashed=1;html=1;exitX=1.2;exitY=0.297;exitDx=0;exitDy=0;exitPerimeter=0;startArrow=classic;startFill=1;" edge="1" parent="1">
          <mxGeometry x="0.4118" y="10" width="50" height="50" relative="1" as="geometry">
            <mxPoint x="230" y="429.98" as="sourcePoint"/>
            <mxPoint x="400" y="430" as="targetPoint"/>
            <mxPoint as="offset"/>
          </mxGeometry>
        </mxCell>
        <mxCell id="c4jGAsvlEePRstkMnkjR-15" value="displayed suggestions" style="endArrow=none;dashed=1;html=1;startArrow=classic;startFill=1;" edge="1" parent="1">
          <mxGeometry x="0.1426" y="10" width="50" height="50" relative="1" as="geometry">
            <mxPoint x="80" y="460" as="sourcePoint"/>
            <mxPoint x="220" y="460" as="targetPoint"/>
            <mxPoint as="offset"/>
          </mxGeometry>
        </mxCell>
      </root>
    </mxGraphModel>
  </diagram>
</mxfile>
